<svg width="64" height="64" viewBox="0 0 64 64" fill="none" xmlns="http://www.w3.org/2000/svg">
<path d="M11.2491 44.2444L29.1046 47.7811L17.9383 59.871L11.2491 44.2444Z" fill="white"/>
<rect width="60.5435" height="48.8733" rx="22" transform="matrix(0.998417 -0.0562471 0.072685 0.997355 0 3.4054)" fill="white"/>
<path d="M28.8638 27.4533C29.5372 28.2449 30.3963 28.8998 31.3829 29.3737C32.3695 29.8476 33.4605 30.1295 34.5819 30.2001C35.7033 30.2707 36.8288 30.1284 37.8822 29.783C38.9355 29.4375 39.8921 28.8969 40.6869 28.1978L45.391 24.0618C46.8192 22.7617 47.6095 21.0205 47.5916 19.2131C47.5737 17.4057 46.7492 15.6767 45.2955 14.3987C43.8419 13.1206 41.8754 12.3956 39.8198 12.3799C37.7641 12.3642 35.7836 13.059 34.3049 14.3147L31.6079 16.6722" stroke="#132742" stroke-width="2" stroke-linecap="round" stroke-linejoin="round"/>
<path d="M35.1361 24.696C34.4627 23.9045 33.6035 23.2495 32.6169 22.7756C31.6303 22.3017 30.5393 22.0199 29.4179 21.9493C28.2966 21.8786 27.171 22.0209 26.1177 22.3664C25.0643 22.7118 24.1078 23.2524 23.313 23.9515L18.6088 28.0875C17.1806 29.3876 16.3904 31.1289 16.4083 32.9363C16.4261 34.7437 17.2507 36.4726 18.7043 37.7507C20.158 39.0287 22.1244 39.7537 24.1801 39.7694C26.2358 39.7851 28.2163 39.0903 29.6949 37.8346L32.3763 35.4771" stroke="#132742" stroke-width="2" stroke-linecap="round" stroke-linejoin="round"/>
</svg>
